Normalized EMG Linear Envelopes
nRows=38
nColumns=17

endheader
time	        VM	        VL	        RF	       GRA	        TA	   ADDLONG	   SEMIMEM	      BFLH	        GM	        GL	       TFL	   GLUTMAX	   GLUTMED	      PIRI	    OBTINT	        QF	
2.58	  0.297502	  0.190815	  0.015131	  0.328673	  0.497040	  0.072541	  0.697835	  0.705544	  0.368021	  0.131831	  0.012243	  0.391423	  0.271671	  0.884596	  0.646096	  0.418410	
2.5805	  0.301832	  0.194668	  0.015485	  0.327296	  0.494137	  0.072542	  0.691791	  0.700855	  0.369243	  0.132761	  0.012554	  0.396458	  0.272390	  0.888611	  0.647447	  0.420845	
2.581	  0.306217	  0.198556	  0.015843	  0.325895	  0.491142	  0.072540	  0.685669	  0.696093	  0.370428	  0.133705	  0.012870	  0.401527	  0.273120	  0.892613	  0.648750	  0.423260	
2.5815	  0.310656	  0.202476	  0.016206	  0.324472	  0.488056	  0.072536	  0.679473	  0.691260	  0.371578	  0.134665	  0.013193	  0.406630	  0.273860	  0.896601	  0.650001	  0.425655	
2.582	  0.315150	  0.206429	  0.016573	  0.323028	  0.484881	  0.072531	  0.673206	  0.686358	  0.372690	  0.135641	  0.013521	  0.411765	  0.274611	  0.900573	  0.651195	  0.428028	
2.5825	  0.319698	  0.210414	  0.016944	  0.321563	  0.481619	  0.072523	  0.666874	  0.681390	  0.373765	  0.136634	  0.013855	  0.416933	  0.275371	  0.904528	  0.652329	  0.430378	
2.583	  0.324300	  0.214428	  0.017321	  0.320081	  0.478274	  0.072514	  0.660478	  0.676359	  0.374802	  0.137643	  0.014195	  0.422133	  0.276141	  0.908464	  0.653400	  0.432703	
2.5835	  0.328957	  0.218472	  0.017701	  0.318580	  0.474848	  0.072503	  0.654024	  0.671268	  0.375799	  0.138669	  0.014541	  0.427364	  0.276921	  0.912379	  0.654407	  0.435004	
2.584	  0.333668	  0.222545	  0.018087	  0.317062	  0.471343	  0.072492	  0.647515	  0.666120	  0.376758	  0.139712	  0.014893	  0.432626	  0.277710	  0.916272	  0.655347	  0.437277	
2.5845	  0.338433	  0.226644	  0.018477	  0.315529	  0.467763	  0.072479	  0.640954	  0.660919	  0.377676	  0.140773	  0.015251	  0.437918	  0.278508	  0.920142	  0.656220	  0.439523	
2.585	  0.343252	  0.230769	  0.018871	  0.313980	  0.464110	  0.072466	  0.634345	  0.655669	  0.378554	  0.141851	  0.015615	  0.443239	  0.279316	  0.923987	  0.657025	  0.441739	
2.5855	  0.348124	  0.234919	  0.019271	  0.312419	  0.460389	  0.072452	  0.627691	  0.650372	  0.379391	  0.142947	  0.015985	  0.448588	  0.280134	  0.927807	  0.657764	  0.443925	
2.586	  0.353050	  0.239093	  0.019674	  0.310844	  0.456602	  0.072437	  0.620994	  0.645033	  0.380186	  0.144061	  0.016362	  0.453965	  0.280961	  0.931600	  0.658437	  0.446078	
2.5865	  0.358028	  0.243289	  0.020083	  0.309258	  0.452752	  0.072422	  0.614259	  0.639656	  0.380940	  0.145194	  0.016744	  0.459368	  0.281798	  0.935366	  0.659047	  0.448198	
2.587	  0.363059	  0.247507	  0.020496	  0.307662	  0.448844	  0.072407	  0.607488	  0.634243	  0.381652	  0.146346	  0.017133	  0.464797	  0.282646	  0.939102	  0.659596	  0.450284	
2.5875	  0.368143	  0.251746	  0.020914	  0.306056	  0.444880	  0.072391	  0.600684	  0.628798	  0.382322	  0.147518	  0.017528	  0.470251	  0.283505	  0.942809	  0.660085	  0.452334	
2.588	  0.373279	  0.256003	  0.021336	  0.304442	  0.440864	  0.072374	  0.593850	  0.623326	  0.382950	  0.148709	  0.017929	  0.475729	  0.284375	  0.946484	  0.660518	  0.454347	
2.5885	  0.378467	  0.260279	  0.021763	  0.302820	  0.436799	  0.072358	  0.586989	  0.617830	  0.383536	  0.149921	  0.018336	  0.481229	  0.285258	  0.950127	  0.660897	  0.456324	
2.589	  0.383706	  0.264573	  0.022195	  0.301191	  0.432688	  0.072342	  0.580104	  0.612313	  0.384081	  0.151153	  0.018750	  0.486750	  0.286154	  0.953736	  0.661224	  0.458262	
2.5895	  0.388997	  0.268882	  0.022631	  0.299556	  0.428534	  0.072325	  0.573199	  0.606780	  0.384585	  0.152406	  0.019170	  0.492292	  0.287063	  0.957310	  0.661500	  0.460162	
2.59	  0.394339	  0.273206	  0.023072	  0.297916	  0.424340	  0.072309	  0.566276	  0.601232	  0.385048	  0.153680	  0.019596	  0.497852	  0.287987	  0.960848	  0.661728	  0.462023	
2.5905	  0.399731	  0.277544	  0.023518	  0.296270	  0.420109	  0.072293	  0.559338	  0.595675	  0.385470	  0.154976	  0.020029	  0.503430	  0.288926	  0.964350	  0.661910	  0.463843	
2.591	  0.405174	  0.281894	  0.023968	  0.294621	  0.415844	  0.072277	  0.552390	  0.590111	  0.385855	  0.156293	  0.020469	  0.509023	  0.289880	  0.967813	  0.662048	  0.465622	
2.5915	  0.410667	  0.286255	  0.024423	  0.292968	  0.411547	  0.072261	  0.545434	  0.584545	  0.386202	  0.157633	  0.020914	  0.514630	  0.290850	  0.971238	  0.662142	  0.467360	
2.592	  0.416210	  0.290626	  0.024882	  0.291313	  0.407220	  0.072247	  0.538473	  0.578980	  0.386513	  0.158994	  0.021366	  0.520250	  0.291838	  0.974623	  0.662194	  0.469056	
2.5925	  0.421804	  0.295006	  0.025346	  0.289657	  0.402868	  0.072233	  0.531512	  0.573419	  0.386789	  0.160377	  0.021825	  0.525881	  0.292844	  0.977967	  0.662207	  0.470709	
2.593	  0.427448	  0.299394	  0.025814	  0.288001	  0.398491	  0.072220	  0.524552	  0.567866	  0.387032	  0.161783	  0.022290	  0.531521	  0.293870	  0.981268	  0.662180	  0.472319	
2.5935	  0.433144	  0.303790	  0.026287	  0.286346	  0.394093	  0.072208	  0.517599	  0.562325	  0.387243	  0.163212	  0.022761	  0.537170	  0.294915	  0.984527	  0.662116	  0.473886	
2.594	  0.438892	  0.308191	  0.026764	  0.284693	  0.389675	  0.072197	  0.510654	  0.556799	  0.387423	  0.164664	  0.023239	  0.542826	  0.295981	  0.987741	  0.662014	  0.475409	
2.5945	  0.444693	  0.312599	  0.027245	  0.283044	  0.385241	  0.072188	  0.503723	  0.551290	  0.387573	  0.166139	  0.023723	  0.548488	  0.297068	  0.990908	  0.661877	  0.476889	
2.595	  0.450545	  0.317011	  0.027732	  0.281400	  0.380792	  0.072180	  0.496807	  0.545803	  0.387694	  0.167637	  0.024213	  0.554154	  0.298178	  0.994027	  0.661705	  0.478324	
2.5955	  0.456450	  0.321427	  0.028222	  0.279761	  0.376330	  0.072174	  0.489910	  0.540339	  0.387786	  0.169160	  0.024710	  0.559823	  0.299310	  0.997096	  0.661500	  0.479716	
2.596	  0.462408	  0.325847	  0.028717	  0.278130	  0.371857	  0.072170	  0.483036	  0.534903	  0.387852	  0.170708	  0.025212	  0.565495	  0.300466	  1.000114	  0.661261	  0.481065	
2.5965	  0.468420	  0.330268	  0.029217	  0.276506	  0.367377	  0.072168	  0.476188	  0.529497	  0.387891	  0.172281	  0.025721	  0.571167	  0.301646	  1.003079	  0.660989	  0.482370	
2.597	  0.474484	  0.334691	  0.029720	  0.274892	  0.362890	  0.072168	  0.469369	  0.524124	  0.387907	  0.173879	  0.026237	  0.576839	  0.302850	  1.005988	  0.660685	  0.483631	
2.5975	  0.480602	  0.339115	  0.030229	  0.273289	  0.358399	  0.072170	  0.462582	  0.518788	  0.387899	  0.175502	  0.026758	  0.582508	  0.304078	  1.008841	  0.660349	  0.484849	
2.598	  0.486774	  0.343538	  0.030741	  0.271698	  0.353908	  0.072175	  0.455830	  0.513491	  0.387869	  0.177152	  0.027285	  0.588174	  0.305331	  1.011634	  0.659982	  0.486024	
2.5985	  0.493000	  0.347959	  0.031258	  0.270120	  0.349417	  0.072182	  0.449116	  0.508237	  0.387819	  0.178828	  0.027819	  0.593834	  0.306610	  1.014365	  0.659583	  0.487154	
